<?xml version="1.0" encoding="utf-8"?>
<!-- Generator: Adobe Illustrator 16.0.4, SVG Export Plug-In . SVG Version: 6.00 Build 0)  -->
<!DOCTYPE svg PUBLIC "-//W3C//DTD SVG 1.1//EN" "http://www.w3.org/Graphics/SVG/1.1/DTD/svg11.dtd">
<svg version="1.1"
	 id="svg3100" xmlns:inkscape="http://www.inkscape.org/namespaces/inkscape" xmlns:rdf="http://www.w3.org/1999/02/22-rdf-syntax-ns#" xmlns:ns1="http://sozi.baierouge.fr" xmlns:cc="http://creativecommons.org/ns#" xmlns:dc="http://purl.org/dc/elements/1.1/" xmlns:sodipodi="http://sodipodi.sourceforge.net/DTD/sodipodi-0.dtd" inkscape:version="0.48.4 r" sodipodi:docname="Nuovo documento 4"
	 xmlns="http://www.w3.org/2000/svg" xmlns:xlink="http://www.w3.org/1999/xlink" x="0px" y="0px" width="512px" height="512px"
	 viewBox="0 0 512 512" enable-background="new 0 0 512 512" xml:space="preserve">
<sodipodi:namedview  inkscape:cy="89.66642" inkscape:cx="92.997574" borderopacity="1.0" showgrid="false" inkscape:zoom="1.3173224" fit-margin-top="0" pagecolor="#ffffff" fit-margin-left="0" bordercolor="#666666" id="base" inkscape:document-units="px" inkscape:pageopacity="0.0" inkscape:window-width="1366" fit-margin-bottom="0" fit-margin-right="0" inkscape:window-height="706" inkscape:window-y="-8" inkscape:pageshadow="2" inkscape:current-layer="layer1" inkscape:window-x="-8" inkscape:window-maximized="1">
	</sodipodi:namedview>
<g id="layer1" transform="translate(-157.43 -640.94)" inkscape:label="Livello 1" inkscape:groupmode="layer">
	<g id="g4010" transform="matrix(1.8924 0 0 1.8924 -243.82 -653.77)">
		<path id="path3191" inkscape:connector-curvature="0" sodipodi:nodetypes="cccc" fill="#F28A1B" stroke="#F28A1B" d="
			M425.437,779.16c2.541,2.196,27.367,19.834,12.845,0.668c9.546-4.683,9.67-10.834,9.67-10.834
			C447.132,764.007,425.438,779.16,425.437,779.16L425.437,779.16z"/>
		
			<path id="path3193" inkscape:connector-curvature="0" sodipodi:nodetypes="cc" fill="none" stroke="#FCEF63" stroke-width="2" stroke-linecap="round" stroke-linejoin="round" d="
			M339.082,735.022c-4.316,8.3,7.636,11.62,7.636,11.62"/>
		<g id="g4003">
			
				<path id="path3997" sodipodi:cx="251.47946" sodipodi:cy="761.16132" sodipodi:type="arc" sodipodi:ry="5.09937" sodipodi:rx="38.379467" fill="#CDEAF9" stroke="#CDEAF9" stroke-width="0.1" stroke-linecap="round" stroke-linejoin="round" d="
				M347.304,868.503c68.424,0,123.894,10.898,123.894,24.341c0,13.442-55.47,24.34-123.894,24.34s-123.893-10.898-123.893-24.34
				C223.411,879.401,278.88,868.503,347.304,868.503z"/>
			
				<path id="path3995" sodipodi:cx="251.47946" sodipodi:cy="761.16132" sodipodi:type="arc" sodipodi:ry="5.09937" sodipodi:rx="38.379467" fill="#FFFFFF" stroke="#FFFFFF" stroke-width="0.1" stroke-linecap="round" stroke-linejoin="round" d="
				M348.51,863.337c55.979,0,101.359,10.692,101.359,23.88c0,13.189-45.38,23.88-101.359,23.88s-101.36-10.692-101.36-23.88
				C247.15,874.029,292.531,863.337,348.51,863.337z"/>
			
				<path id="path3993" sodipodi:cx="251.47946" sodipodi:cy="761.16132" sodipodi:type="arc" sodipodi:ry="5.09937" sodipodi:rx="38.379467" fill="#CDEAF9" stroke="#CDEAF9" stroke-width="0.1" stroke-linecap="round" stroke-linejoin="round" d="
				M347.331,868.455c48.135,0,87.157,8.397,87.157,18.756c0,10.359-39.022,18.756-87.157,18.756s-87.157-8.397-87.157-18.756
				C260.174,876.852,299.196,868.455,347.331,868.455z"/>
			
				<path id="path3991" sodipodi:cx="251.47946" sodipodi:cy="761.16132" sodipodi:type="arc" sodipodi:ry="5.09937" sodipodi:rx="38.379467" fill="#FFFFFF" stroke="#FFFFFF" stroke-width="0.1" stroke-linecap="round" stroke-linejoin="round" d="
				M347.316,872.674c36.368,0,65.85,5.944,65.85,13.276c0,7.332-29.482,13.276-65.85,13.276c-36.368,0-65.85-5.944-65.85-13.276
				C281.466,878.618,310.948,872.674,347.316,872.674z"/>
			
				<path id="path3989" sodipodi:cx="251.47946" sodipodi:cy="761.16132" sodipodi:type="arc" sodipodi:ry="5.09937" sodipodi:rx="38.379467" fill="#CDEAF9" stroke="#CDEAF9" stroke-width="0.1" stroke-linecap="round" stroke-linejoin="round" d="
				M347.311,875.625c28.528,0,51.654,4.663,51.654,10.415s-23.127,10.414-51.654,10.414s-51.655-4.663-51.655-10.414
				C295.656,880.288,318.783,875.625,347.311,875.625z"/>
		</g>
		
			<path id="path3981" inkscape:connector-curvature="0" sodipodi:nodetypes="sssssss" fill="#FCEF63" stroke="#FCEF63" stroke-width="2" stroke-linecap="round" stroke-linejoin="round" d="
			M277.283,841.015c-0.268-12.194,11.12-54.647,16.831-45.514c5.253,8.398,15.37,14.507,34.298,14.475
			c19.59-0.035,60.769-7.481,74.692-1.384c12.291,5.382,19.434,19.926,19.434,32.423c0,26.653-32.516,48.259-72.627,48.259
			c-40.111,0-72.042-21.613-72.627-48.259L277.283,841.015z"/>
		
			<path id="path3189" sodipodi:cx="252.90108" sodipodi:cy="705.34131" sodipodi:type="arc" sodipodi:ry="4.5226388" sodipodi:rx="5.7449737" fill="#FCEF63" stroke="#FCEF63" stroke-width="1.5" d="
			M385.996,727.704c24.149,0,43.726,17.102,43.726,38.198c0,21.096-19.577,38.198-43.726,38.198
			c-24.149,0-43.726-17.101-43.726-38.198C342.27,744.805,361.847,727.704,385.996,727.704z"/>
		
			<path id="path3963" sodipodi:cx="243.59862" sodipodi:cy="708.1402" sodipodi:type="arc" sodipodi:ry="3.0036821" sodipodi:rx="3.9047868" fill="#FFFFFF" stroke="#FFFFFF" stroke-width="2" stroke-linecap="round" stroke-linejoin="round" d="
			M413.361,760.67c2.835,0,5.133,2.298,5.133,5.133s-2.298,5.133-5.133,5.133c-2.835,0-5.133-2.298-5.133-5.133
			C408.228,762.968,410.527,760.67,413.361,760.67z"/>
		
			<path id="path3965" sodipodi:cx="243.59862" sodipodi:cy="708.1402" sodipodi:type="arc" sodipodi:ry="3.0036821" sodipodi:rx="3.9047868" stroke="#000000" stroke-width="2" stroke-linecap="round" stroke-linejoin="round" d="
			M413.366,762.373c1.89,0,3.422,1.532,3.422,3.422c0,1.89-1.532,3.422-3.422,3.422c-1.89,0-3.422-1.532-3.422-3.422
			C409.944,763.905,411.476,762.373,413.366,762.373z"/>
		
			<path id="path3967" sodipodi:cx="243.59862" sodipodi:cy="708.1402" sodipodi:type="arc" sodipodi:ry="3.0036821" sodipodi:rx="3.9047868" fill="#FFFFFF" stroke="#FFFFFF" stroke-width="2" stroke-linecap="round" stroke-linejoin="round" d="
			M414.771,764.945c0.945,0,1.711,0.766,1.711,1.711c0,0.945-0.766,1.711-1.711,1.711c-0.945,0-1.711-0.766-1.711-1.711
			C413.06,765.711,413.825,764.945,414.771,764.945z"/>
	</g>
</g>
</svg>
