<?xml version="1.0" encoding="utf-8"?>
<!-- Generator: Adobe Illustrator 16.0.4, SVG Export Plug-In . SVG Version: 6.00 Build 0)  -->
<!DOCTYPE svg PUBLIC "-//W3C//DTD SVG 1.1//EN" "http://www.w3.org/Graphics/SVG/1.1/DTD/svg11.dtd">
<svg version="1.1"
	 id="Layer_1" xmlns:svg="http://www.w3.org/2000/svg" xmlns:inkscape="http://www.inkscape.org/namespaces/inkscape" xmlns:rdf="http://www.w3.org/1999/02/22-rdf-syntax-ns#" xmlns:ns1="http://sozi.baierouge.fr" xmlns:cc="http://web.resource.org/cc/" xmlns:dc="http://purl.org/dc/elements/1.1/" xmlns:sodipodi="http://inkscape.sourceforge.net/DTD/sodipodi-0.dtd" sodipodi:docbase="F:\openclip\svg da inviare" sodipodi:version="0.32" inkscape:version="0.42" sodipodi:docname="Anatra.svg"
	 xmlns="http://www.w3.org/2000/svg" xmlns:xlink="http://www.w3.org/1999/xlink" x="0px" y="0px" width="512px" height="512px"
	 viewBox="0 0 512 512" enable-background="new 0 0 512 512" xml:space="preserve">
<sodipodi:namedview  inkscape:cy="176.82500" inkscape:cx="208.33150" borderopacity="1.0" inkscape:zoom="1.0179556" pagecolor="#ffffff" bordercolor="#666666" id="base" inkscape:pageopacity="0.0" inkscape:window-width="787" inkscape:window-height="510" inkscape:window-y="116" inkscape:pageshadow="2" inkscape:current-layer="Layer_1" inkscape:window-x="88">
	</sodipodi:namedview>
<path id="path3" d="M271.043,468.453c-0.393-0.123-1.143-0.369-1.499-0.554c-3.249-2.107-1.468-7.227-2.653-7.96
	c-3.791-2.347-5.504,2.506-9.729,1.18c-12.468-3.911,2.05-19.083,2.653-27.12c0.694-9.244-8.457-24.358-12.088-33.014
	c-1.34-3.191-3.502-12.038-5.012-14.149c-2.943-4.115-12.466-6.882-17.542-9.14c-17.851-7.936-30.816-17.35-49.034-25.547
	c-9.381-4.22-17.988-11.152-28.063-15.13c-9.128-3.604-20.102-5.143-28.304-10.613c-11.309-7.54-22.741-17.408-34.495-22.401
	c-8.772-3.728-20.444-2.791-29.482-7.075c-7.323-3.472-15.132-6.454-23.291-8.843c-4.61-1.351-31.134-4.558-32.433-8.254
	c-2.025-5.766,35.826-9.403,39.655-10.17c7.269-1.456,15.151-2.741,22.407-4.716c2.472-0.674,2.525-5.579,5.749-8.107
	c-4.833-1.038-33.371,5.098-18.869-3.832c6.871-4.231,49.844-6.244,26.389-15.623c-7.854-3.141-42.422-15.359-22.26-21.812
	c9.202-2.946,27.344-1.146,36.854,0.442c15.581,2.6,32.629,1.916,48.353,1.916c11.112,0,21.414-7.744,30.956-11.202
	c32.082-11.629,65.954-25.933,100.536-28.003c35.186-2.106,67.318-2.653,100.391-2.653c12.934,0,4.568-10.25,1.327-19.16
	c-2.218-6.099-4.529-12.837-6.487-19.161c-4.176-13.489-6.039-26.848-4.275-40.973c3.969-31.772,33.705-57.918,64.42-58.07
	c37.772-0.187,54.074,44.026,76.378,66.62c8.095,8.206,19.257,22.319-1.18,19.75c-13.679-1.72-26.654-4.233-39.802-3.833
	c-8.305,0.253-31.842,1.541-30.663,14.149c0.567,6.079,10.638,11.276,15.183,14.002c9.4,5.64,19.105,14.112,26.978,21.667
	c19.136,18.362,25.349,43.598,22.996,69.566c-2.094,23.132-11.63,39.284-25.354,56.599c-11.314,14.271-26.134,24.135-39.213,37.73
	c-10.266,10.67-23.035,18.385-36.264,24.465c-27.302,12.551-56.096,21.605-85.796,26.53c-7.323,1.214-29.065-1.336-33.906,2.948
	c-5.627,4.978,6.206,32.54,11.204,39.5c6.836,9.521,12.299,2.291,21.227,3.537c6.059,0.847,14.684,2.608,22.997,1.18
	c9.481-1.629,20.573-10.22,30.073-7.37c2.662,0.799,7.502,2.865,7.96,6.19c0.569,4.146-5.134,1.52-5.308,5.602
	c-0.555,13.101,25.039,15.948,24.176,23.877c-0.264,2.416-25.701,10.907-29.777,10.907c-16.332,0-33.559-1.155-48.943,0.295
	c-5.426,0.511-10.422,1.434-15.478-0.59c-7.882-3.156-13.648-1.684-21.67-3.538"/>
<path id="path5" fill="#FF7F00" d="M272.175,464.973c-7.692-6.009,6.685-21.405-3.502-26.247c-4.298-2.032,0.371,10.91-3.539,15.329
	c-3.384,3.824-8.198,4.453-9.14-0.589c-1.027-5.505,7.755-13.724,7.961-20.045c0.056-1.68-2.182-10.835-3.244-13.854
	c-1.504-4.281-7.289-8.565-6.485-13.561c0.646-4.007,3.001-1.261,4.423-4.126c1.852-3.732,4.895-12.188-0.589-14.738
	c-2.359,4.264-2.127,20.332-9.435,7.664c-4.366-7.566,3.245-16,0.588-23.582c0.627,0.023,1.375,0.605,2.064,0.295
	c15.231-6.869,17.461,18.958,19.46,27.415c4.569,19.327,11.271,43.588,31.253,45.1c8.556,0.648,25.292-0.954,32.725-4.127
	c8.312-3.549,15.895-16.01,26.83-9.727c-4.725,7.557-0.926,9.812,1.179,16.508c2.19,6.97,5.149,4.429-2.358,7.96
	c-4.467,2.102-9.673,0.819-14.447,0.884c-11.119,0.147-24.715,1.733-34.494-1.474v-0.589c8.731,0.528,16.791-1.56,25.355-3.831
	c3.048-0.809,19.443-8.207,18.869-10.613c-1.133-4.741-17.822,6.367-21.229,7.37c-9.504,2.8-18.664,1.17-28.008,2.947
	c-11.504,2.187-5.552,6.604,3.537,8.549c12.904,2.758,30.034,2.609,43.636,1.768c7.66-0.474,14.59-5.153,20.638-3.244
	c8.779,2.772,2.136,5.371-2.947,7.961c-15.906,8.104-39.316,4.115-57.787,3.537c-4.483-0.14-12.134,2.584-15.627,2.063
	c-4.777-0.713-9.736-4.382-15.035-5.011c-3.631-0.432-7.064,0.791-10.614,0"/>
<path id="path7" d="M288.715,462.606C284.844,454.606,296.715,460.357,288.715,462.606"/>
<path id="path9" d="M283.7,460.25c-5.972-4.559-2.74-7.839,3.538-4.128c-0.457,1.967-1.748,3.176-3.537,4.125"/>
<path id="path11" d="M294.318,464.376C290.976,456.818,303.645,461.033,294.318,464.376"/>
<path id="path13" d="M283.406,447.861c-2.925-1.475-4.584-7.975,0.59-5.604C286.989,443.636,289.322,448.996,283.406,447.861"/>
<path id="path15" d="M278.404,441.667C272.359,434.454,286.072,436.985,278.404,441.667"/>
<path id="path17" d="M274.571,433.127C269.938,427.4,280.69,428.15,274.571,433.127"/>
<path id="path19" fill="#996633" d="M296.689,439.322c-0.7-2.052,0.701-4.497,3.822-5.014c4.84-0.811,1.391,2.933,4.127,3.538
	c4.197,0.929,12.516-1.219,18.574-0.295c-5.438,3.587-19.169,3.593-26.535,1.769"/>
<path id="path21" d="M270.442,427.818C266.215,419.807,280.69,424.648,270.442,427.818"/>
<path id="path23" d="M267.198,420.742c-0.381-1.586-1.954-2.139-0.295-5.014c-0.281,0.084-0.698,0.117-0.59-0.294
	c-2.571,0.557-7.8-7.299-2.948-10.612c3.409-2.327,5.324,7.525,3.833,10.317c6.471-0.767,3.147,4.158,0,5.601"/>
<path id="path25" fill="#FFFFCC" d="M241.574,380.986c-30.93-13.664-51.524-27.869-80.524-41.891
	c-14.125-6.823-28.896-9.445-41.865-17.096c-10.275-6.061-20.279-13.678-27.419-19.75c8.311-5.171,24.917-3.627,35.085-4.717
	c6.117-0.654,14.643-2.055,20.048-5.305c1.169-0.703,5.335-5.653,6.782-5.604c4.482,0.158-0.079,1.234,1.474,4.424
	c3.108,6.388-2.187,7.27,6.191,3.243c1.872-0.899,2.867-4.678,5.307-4.128c3.648,0.824-1.546,3.145-0.294,5.012
	c2.978,4.439,0.738,4.674,8.255,0.295c5.198-3.027,6.685-7.229,6.782-0.885c0.062,4.021-6.059,10.584,0.294,11.496
	c3.121,0.447,10.723-9.298,16.511-8.844c4.066,0.32,1.744,3.373,3.833,3.832c1.614,0.354,4.157-0.26,5.896,0.589
	c5.25,2.561,4.427-2.062,2.654,6.19c-1.051,4.893-1.62,7.03-0.59,12.086c0.297,1.453,3.031,4.334,2.947,4.716
	c-0.516,2.349-3.868,1.322-4.422,3.243c-2.023,6.999,1.428,1.872,5.602,8.844c4.239,7.078-3.319-0.744-4.717,6.189
	c-1.258,6.23,18.642,14.791,23.291,17.393c-3.105,3.127-0.319,2.847,1.179,5.305c0.401,0.658,3.856,0.757,4.424,1.18
	c0.671,0.497-0.819,2.748,0.294,3.831c2.746,2.669,4.693-0.291,5.896,5.011c0.87,3.84,0.271,5.897-2.947,5.305"/>
<path id="path27" fill="#D59758" d="M15.105,279.249c-0.062-0.062-0.565-0.245-0.578-0.295c-1.135-2.418,21.668-4.864,26.829-5.896
	c7.422-1.484,21.671-7.812,30.367-6.484c6.437,0.982,2.772,3.652,7.962,6.779c4.018,2.42,10.32,0.877,14.152,3.242
	c4.425,2.732,3.229,5.262,10.614,7.371c8.555,2.443,11.688,3.932,16.805,6.78c4.553,2.535,11.388,0.421,2.064,3.243
	c-4.987,1.51-12.147,0.601-17.689,1.178c-11.766,1.227-26.62,4.989-38.033,2.359c0.407-0.266-0.272-0.577-0.295-0.59
	c6.941-1.359,14.022-2.661,21.522-4.126c-7.676-4.301-21.686,1.899-30.367-0.294v-0.59c10.03-1.694,22.869-0.027,33.905-2.651
	c-5.552-0.845-13.612-1.021-17.985-2.654c3.102-0.242,7.456-0.634,10.32-1.474c-0.295,0.099-0.394,0-0.295-0.295
	c-3.74-0.17-6.003-1.33-6.486-3.242c-1.376,3.688-37.47,3.625-43.93,2.064v-0.589c7.484-2.253,16.483-2.463,25.062-3.538
	c-12.47-4.32-30.32,2.443-43.93-0.293"/>
<path id="path29" fill="#E4BC96" d="M273.973,384.446c-15.09-16.282,9.757-13.37,20.055-13.222
	c5.232,0.051,17.631,0.144,25.945-0.589c7.736-0.681,16.481-2.46,23.29-6.484c5.865-3.468,9.108-5.376,0.295-3.831
	c-6.955,1.217-14.126,8.931-21.817,7.662c-2.365-0.389-7.221-4.312-5.307-4.126c-3.785-0.368-6.805,2.45-11.498,3.243
	c-4.918,0.83-9.703-2.43-14.152,0c-2.242-7.352-16.911,3.041-22.703,3.244c0,0-2.953-2.514-4.126-2.654
	c-5.97-0.725-13.506,2.312-19.165,0.295c0.02,0.007-1.164-4.518-2.064-5.307c-0.348-0.305-5.54-2.203-5.305-2.062
	c-7.934-4.735-13.313-11.191-22.113-16.213c-0.462,0.139,2.17-1.941,2.064-1.179c0.375-2.706,6.977,0.466,5.307-5.306
	c-1.144-3.953-10.206-3.58-10.318-7.369c-0.037-1.262,6.465-2.568,6.781-5.602c0.238-2.284-4.663-5.166-5.307-7.369
	c-1.357-4.641,2.695-19.885,7.961-24.467c11.352-9.881,28.828-5.396,41.57-5.895c1.997-0.078,5.766-2.664,6.782-2.653
	c2.598,0.026,6.175,2.897,9.14,2.653c5.654-0.466,10.527-4.423,17.248-4.423c11.02,0,20.785-1.515,31.104-3.536
	c4.726-0.924,11.518,0.92,15.626-1.769c2.283-1.494,2.078-5.411,4.127-6.484c4.754-2.489,10.049-0.729,16.511,0.884
	c5.983,1.495,10.434-0.638,14.741-0.294c6.287,0.503,9.766,3.168,15.922,2.063c7.051-1.266,15.68-8.41,20.637-14.738
	c1.834-2.34,2.572-5.491,4.128-7.665c0.544-0.762-1.289-2.776-0.885-3.538c0.655-1.234,3.629,1.102,4.128,0.295
	c0.199-0.322,1.982-6.24,2.357-6.486c2.725-1.792,7.707-0.434,10.025-2.948c4.018-4.357-0.984-4.979-0.295-7.369
	c1.053-3.652,7.804-1.972,3.537-8.549c2.189-0.122,8.945,0.479,10.615-0.885c11.324-9.254-23.585-43.21-30.368-50.701
	c-3.47-3.833-3.995-9.495-7.075-13.56c-5.347-7.055,0.942,2.516-1.18,5.011c-3.2,3.763-2.785-0.267-5.013-5.011
	c-2.819-6.002-3.554-14.865-7.665-19.16c-0.5,2.648-0.131,6.641,0.295,9.433c-4.293-4.75-4.672-12.513-8.846-16.802
	c-0.287,0.33-0.209,1.436-0.59,1.769c-3.373-2.858-4.536-8.162-7.074-10.612c-0.351,0.21-0.359,0.885-0.885,1.179
	c-2.124-3.19-2.286-12.677-6.486-10.317c0.099-0.295,0-0.393-0.295-0.295c-1.705-13.335,1.467-17.345,4.128-29.773
	c2.382-11.118,3.379-23.384,16.806-31.541c11.1-6.742,29.609-12.464,41.57-6.484c13.848,6.923,32.496,15.083,34.199,31.246
	c0.568,5.391-1.867,12.768-4.127,18.424c-1.92,4.802-9.666,7.853-9.14,13.412c0.3,3.16,8.749,5.579,6.782,9.139
	c-0.758,1.369-19.6,1.386-22.85,3.243c-12.389,7.075-20.901,11.974-8.403,24.465c24.415,24.403,51.05,33.293,57.492,69.862
	c4.689,26.612,0.909,52.277-17.396,73.987c-17.028,20.197-38.247,41.677-58.67,55.124c-18.541,12.208-39.689,22.978-63.094,28.003
	c-25.547,5.484-49.99,14.619-76.95,12.674"/>
<path id="path31" fill="#8B5C29" d="M101.499,279.258c-2.74-7.656-8.749-3.846-17.093-8.848c-4.439-2.654-4.536-5.946-12.973-9.432
	c0.789-0.712,2.677-1.6,3.243-2.359c4.219-5.663,19.639-2.12,28.599-2.947c14.315-1.321,20.576,2.032,32.727,9.139
	c-2.921,4.928-7.735,11.992,1.769,8.254c-8.844,11.25-20.068,10.724-36.265,6.191"/>
<path id="path33" fill="#D59758" d="M136.874,292.824c-4.079-1.377-5.824-4.486-9.425-6.206
	c10.477-6.44,26.666-22.431,38.327-20.339c-4.095,5.125-6.906,10.349-11.203,14.444c-6.259,5.965-12.749,9.025-17.69,12.085"/>
<path id="path35" fill="#8B5C29" d="M161.612,288.136c-11.551-21.185,46.892-37.331,58.995-42.787
	c4.669-2.088,11.705-4.558,2.359-4.421c-6.996,0.102-20.31,8.74-28.303,11.496c-8.474,2.922-16.674,5.298-25.356,7.663
	c-8.04,2.189-19.96,3.088-26.829,6.19c-0.319-9.312,10.403-10.738,12.383-13.854c0.57-0.899-1.58-6.145,1.769-11.202
	c2.333-3.523,8.152-8.41,12.088-11.792c10.407-8.942,26.133-20.99,40.097-17.687c6.549,1.549,8.85,4.988,16.806,5.896
	c7.233,0.826,16.925,1.994,25.65,3.243c-2.949,3.568-10.808,0.768-12.973,4.716c-1.071,1.954,21.103,3.89,26.829,5.895
	c8.209,2.874,10.928,5.498,21.227,6.486c11.092,1.062,22.024-0.852,31.253,0c6.304,0.582,14.941-0.707,20.345,0.295
	c5.467,1.014,10.141,4.957,15.92,6.78c5.157,1.628,8.275,3.08,13.857,4.421c7.16,1.722,16.566,1.594,24.176-0.295
	c8.604-2.134,15.246-6.952,22.406-2.358c1.499,5.667-0.438,8.889-4.718,13.854c-4.856,5.633-11.918,10.202-19.458,10.317
	c-11.736,0.178-36.918-9.391-45.698-3.243c-2.847,1.993-0.729,5.385-2.653,6.779c-2.605,1.889-8.318,1.588-11.498,2.063
	c-7.751,1.158-12.608,1.904-18.868,2.654c-11.354,1.359-25.61,2.261-36.56,2.651c-1.871,0.067-3.486-2.423-5.307-2.358
	c-1.576,0.056-2.01,2.77-3.537,2.948c-2.943,0.349-5.398,1.388-8.55,1.179c-6.84-0.452-9.556-3.307-20.786,1.178
	c-8.572,3.426-16.662,6.1-24.029,8.549c0.099-0.295,0-0.393-0.295-0.295c6.012-9.037-4.232-3.052-7.665-1.767
	c-4.78,1.79-13.475,5.193-19.164,5.896c1.386-2.373,10.01-13.812,10.024-14.149c0.295-6.772-16.43,4.399-21.523,7.369
	c0.098-0.295,0-0.394-0.294-0.295c-3.007-11.521,22.499-12.193,21.522-18.276c-0.964-5.99-31.852,15.478-33.61,16.213"/>
<path id="path37" fill="#D59758" d="M82.035,250.366c-0.111-3.158,17.535-9.179,21.233-1.475c3.58,7.452-18.107,1.851-21.228,1.475"
	/>
<path id="path39" fill="#8B5C29" d="M131.274,257.432c-6.107-3.342-29.454-18.211-31.249-25.633
	c-1.264-5.238,16.692-12.074,23.883-10.022c-4.934,6.967-11.754,6.569-5.603,16.213c4.125,6.465,19.353,14.021,19.46,21.812
	c-2.468-0.533-4.692-1.179-6.486-2.358"/>
<path id="path41" fill="#5A3D1C" d="M80.268,235.333c-9.646-5.345-20.57-9.241-28.299-14.746v-0.59
	c8.099-2.567,23.23-1.737,31.547,0c-2.958,2.286-7.478,3.256-7.37,7.369c0.085,3.258,8.94,7.246,4.126,7.959"/>
<path id="path43" fill="#E4BC96" d="M99.741,242.706c-4.596-1.561-14.451-10.31-17.105-15.925
	c6.401-2.716,11.606-8.564,20.048-5.011c-4.348,3.598-10.186,3.768-9.14,9.432c0.8,4.337,10.562,10.626,14.447,14.15
	c-0.321-0.024-0.483,0.284-0.295,0.59c-2.43-1.156-5.077-1.924-7.96-3.243"/>
<path id="path45" fill="#E4BC96" d="M142.777,255.365c-4.301-4.08-21.565-15.25-22.106-22.094
	c-0.681-8.526,16.508-10.918,24.766-11.495c-2.183,3.33-12.887,8.858-14.152,13.265c-1.891,6.582,9.431,11.358,14.741,15.328
	c-0.709,1.726-1.895,3.921-3.244,5.011"/>
<path id="path47" fill="#D59758" d="M148.363,246.227c-2.888-1.081-7.028-3.244-9.13-5.886c-4.71-5.916-3.448-5.347,4.128-10.612
	c7.755-5.39,15.009-13.139,25.355-7.37c-4.565,7.78-15.506,16.951-20.345,23.877"/>
<path id="path49" d="M243.305,280.438c-1.326-2.434,12.583-9.29,17.4-4.719c7.1,6.741-2.426,0.906-4.717,1.178
	c-3.328,0.395-7.431,3.917-12.677,3.539"/>
<path id="path51" d="M225.629,271.884c-0.492-0.382-1.105-0.7-1.77-0.885c4.92-1.198,27.793-11.165,24.766-1.769
	c-0.238,0.736-19.092,3.375-22.998,2.652"/>
<path id="path53" d="M223.553,264.805c-0.713-0.344-1.205-0.639-2.053-0.885c3.154-1.254,19.994-8.413,20.048-5.012
	c0.066,4.314-13.558,5.996-17.985,5.896"/>
<path id="path55" d="M216.485,254.495c-0.971-0.541-1.561-0.787-2.359-1.18v-0.59c6.382-2.556,12.472-7.196,16.511-4.126
	C238.305,254.422,222.808,253.706,216.485,254.495"/>
<path id="path57" fill="#5A3D1C" d="M158.403,217.047c-2.777-2.74,18.396-9.216,23.876-11.195
	c12.95-4.688,25.965-9.708,40.686-14.148c12.795-3.858,22.785-7.144,36.559-8.254c18.592-1.499,38.547-0.702,56.607-2.063
	c5.664-0.428,10.951-1.359,16.805-1.18c2.262,0.07,5.516,1.251,7.371,0.885c2.46-0.484,3.111-3.55,5.012-3.832
	c6.05-0.898,25.354,10.311,22.408,2.063c17.102-0.186,30.696,5.821,46.582,10.612c10.705,3.228,23.711,7.698,28.895,17.098
	c7.606,13.792-7.139,11.881-18.279,12.97c-11.587,1.131-1.605-0.833,5.307,2.653c9.594,4.838-1.273,2.937-1.768,7.074
	c-0.576,4.798,7.711,4.354,0.295,7.369c-4.351,1.769-10.049-0.278-14.447,0c0.098,0.295,0,0.393-0.295,0.295
	c3.207,1.423,6.764,2.533,6.191,6.191c-16.811-4.366-25.859,3.492-43.045,3.243c-9.637-0.14-18.061-2.969-26.535-5.601
	c-4.166-1.294-8.007-6.066-12.973-6.78c-4.506-0.649-8.308,2.808-13.855,2.063c-5.52-0.741-7.381-3.445-13.268-2.947
	c-6.027,0.511-11.178,2.33-18.869,1.769c-12.747-0.93-25.635-5.322-35.969-10.317c13.172-8.889,4.672-7.691-7.666-8.254
	c-4.769-0.217-9.43-2.5-13.855-2.948c-4.575-0.463-8.137,0.93-12.383,0c-1.394-0.306-10.684-5.667-10.615-6.191
	c0.314-2.401,9.967-4.23,12.09-5.011c6.989-2.572,14.087-6.236,21.522-7.959c4.599-1.066,12.601-0.783,14.741-3.833
	c-7.314-2.295-19.639,1.255-26.24,3.537c-13.432,4.643-29.613,10.499-43.636,16.803c-6.085,2.735-11.106,6.761-16.511,7.369
	c-3.872,0.435-9.902-1.681-14.741-1.475"/>
<path id="path59" d="M375.988,224.429c-4.375-1.769-10.396-3.478-12.387-6.783c5.212,0.521,9.522,2.696,14.447,5.011
	c-0.176,1.427-0.891,1.213-2.064,1.769"/>
<path id="path61" d="M391.614,229.739c-4.434-3.134-10.726-6.292-13.269-9.732c6.021,0.702,11.4,5.676,16.805,9.433
	c-1.486,0.543-1.955,0.387-3.537,0.295"/>
<path id="path63" fill="#D59758" d="M383.655,176.989c-4.116-4.657-5.948-13.922-8.258-20.064
	c-7.78-20.634-19.538-53.811-5.306-72.515c2.238,4.946-2.107,12.16-2.064,18.866c0.035,5.492,2.546,12.894,4.422,16.508
	c8.614,16.591,21.471,25.541,30.073,42.447c3.229,6.347,5.747,3.607,9.14,7.074c2.531,2.588,2.473,11.772,7.076,12.97
	c2.342,0.611-0.875-8.191,6.484-2.358c2.943,2.331,5.457,8.208,6.488,12.085c-14.619-5.323-33.529-13.627-48.059-15.033"/>
<path id="path65" d="M402.522,111.82c-1.851-2.092-9.325-7.132-7.96-10.316c4.031,2.052,11.42,3.167,9.729,7.369
	c4.367,2.017,10.195-3.495,7.96,3.537c8.684,0.28,16.168,1.235,23.586-1.473c3.262-1.192,19.206-9.507,14.447-3.243
	c-2.203,2.901-7.64,4.048-11.498,5.011c-3.945,0.984-6.826,2.723-11.793,3.537C419.398,117.485,409.381,114.032,402.522,111.82"/>
<path id="path67" d="M392.203,99.145C379.278,91.375,410.477,100.348,392.203,99.145"/>
<path id="path69" d="M391.024,93.249c-3.391-0.719-4.386-2.226-2.063-4.716c-4.43-3.441-1.025-4.95,2.948-2.358
	c-0.938,0.897-1.055,1.613-2.064,2.358v0.59C393.65,90.523,395.547,92.005,391.024,93.249"/>
<path id="path71" d="M389.255,82.932c-4.017-2.143-0.675-8.155,2.948-5.896C391.919,79.802,391.098,81.65,389.255,82.932"/>
<path id="path73" fill="#EDB500" d="M470.333,117.716c-2.288-1.347-3.877-3.288-5.308-6.486c0.431,0.113,0.354-0.3,0.295-0.588
	c4.742,2.068,4.75-1.562,4.128-1.475c2.347-0.332,4.966-0.618,9.14,0.59c5.615,1.625,13.648,5.806,14.742,10.317
	C485.495,119.662,478.174,118.377,470.333,117.716"/>
<path id="path75" d="M394.855,75.268C390.912,72.113,397.055,70.665,394.855,75.268"/>
<path id="path77" fill="#FFBF00" d="M464.141,104.746c0.08-1.215,0.723-1.767,1.475-3.243c2.471-4.845,4.071-13.469,7.076-18.866
	c2.648-4.758,2.67-3.866,7.076,1.18c6.816,7.806,17.125,19.848,23.291,27.119c8.365,9.863,2.726,11.61-7.37,5.306
	C485.979,110.178,477.684,103.001,464.141,104.746"/>
<path id="path79" d="M390.14,69.962C385.791,61.958,401.664,65.731,390.14,69.962"/>
<path id="path81" d="M398.1,66.425c-0.869-0.493-1.352-0.283-2.064-1.18c1.93-1.044,7.582-6.022,8.846-5.011
	C407.803,62.573,401.105,66.438,398.1,66.425"/>
<path id="path83" d="M485.959,100.324c-3.178-2.021-5.867-4.142-5.603-7.369C483.844,94.255,488.701,97.867,485.959,100.324"/>
<path id="path85" d="M409.893,62.888c-0.433-0.536-1.047-0.901-1.475-1.474C419.457,55.229,419.926,61.63,409.893,62.888"/>
<path id="path87" d="M447.926,78.511c-3.703-1.886-4.326-5.43-7.076-9.138c-1.953-2.635-8.092-8.191-5.307-9.729
	c1.605-0.886,15.359,2.197,16.805,2.948C461.643,67.425,460.111,78.819,447.926,78.511"/>
<path id="path89" fill="#FFFFFF" d="M450.285,75.562c-3.771-1.164-10.059-9.983-2.358-10.317
	C454.188,64.974,457.051,74.879,450.285,75.562"/>
<path id="path91" d="M422.275,59.645c-0.668-0.509-1.298-0.451-1.77-0.885c2.679-0.995,4.396-2.286,3.244-4.716
	c3.789-0.653,8.321-1.336,11.498-0.59C431.047,56.228,430.084,61.423,422.275,59.645"/>
<path id="path93" d="M450.285,72.91c-6.165-0.82-6.58-9.5,0-9.432C456.236,63.539,456.338,72.179,450.285,72.91"/>
<path id="path95" fill="none" d="M450.285,72.91c-6.132-0.823-6.559-9.5,0-9.432C456.236,63.539,456.338,72.179,450.285,72.91"/>
<path id="path97" fill="#FFFFFF" d="M447.926,69.077C444.563,64.272,451.611,64.882,447.926,69.077"/>
<path id="path99" fill="none" d="M447.926,69.077C444.563,64.272,451.611,64.882,447.926,69.077"/>
</svg>
