<?xml version="1.0" encoding="utf-8"?>
<!-- Generator: Adobe Illustrator 16.0.4, SVG Export Plug-In . SVG Version: 6.00 Build 0)  -->
<!DOCTYPE svg PUBLIC "-//W3C//DTD SVG 1.1//EN" "http://www.w3.org/Graphics/SVG/1.1/DTD/svg11.dtd">
<svg version="1.1"
	 id="Calque_1" xmlns:svg="http://www.w3.org/2000/svg" xmlns:inkscape="http://www.inkscape.org/namespaces/inkscape" xmlns:rdf="http://www.w3.org/1999/02/22-rdf-syntax-ns#" xmlns:ns1="http://sozi.baierouge.fr" xmlns:cc="http://creativecommons.org/ns#" xmlns:dc="http://purl.org/dc/elements/1.1/" xmlns:sodipodi="http://sodipodi.sourceforge.net/DTD/sodipodi-0.dtd" inkscape:version="0.48.1 " sodipodi:docname="maman 001.svg"
	 xmlns="http://www.w3.org/2000/svg" xmlns:xlink="http://www.w3.org/1999/xlink" x="0px" y="0px" width="512px" height="512px"
	 viewBox="0 0 512 512" enable-background="new 0 0 512 512" xml:space="preserve">
<sodipodi:namedview  objecttolerance="10" gridtolerance="10" inkscape:cy="147.5" inkscape:cx="262" borderopacity="1" showgrid="false" inkscape:zoom="0.91603053" pagecolor="#ffffff" bordercolor="#666666" id="namedview103" inkscape:pageopacity="0" inkscape:window-width="1600" inkscape:window-height="848" inkscape:window-y="-8" inkscape:pageshadow="2" inkscape:current-layer="g35" inkscape:window-x="-8" inkscape:window-maximized="1" guidetolerance="10">
	</sodipodi:namedview>
<g id="g35">
	<g id="g39">
		<path id="path41" inkscape:connector-curvature="0" fill="#1A171B" d="M371.636,197.551c0.771,0.614-0.815,4.236,0,4.889
			c19.743,15.725,54.044,27.823,70.231,0.999c4.692-7.776,6.408-14.346,6.729-23.138c0.344-9.466,0.188-19.312-2.992-28.343
			c-4.213-11.958-13.409-20.648-25.995-23.21c-17.94-3.651-40.746,0.703-55.599,11.582c-23.148,16.925-21.363,49.674-11.305,73.587
			c5.173,12.297,12.533,22.292,22.111,31.53c13.76,13.272,28.724,25.321,43.789,37.068c7.223,5.633,14.385,11.782,22.086,16.771
			c3.984,2.58,7.732,6.223,9.895,10.477c0.798,1.57,1.448,3.245,1.719,4.994c0.67,4.32,0.65-4.398,0.08-0.574
			c-0.141,0.934-0.329,1.863-0.639,2.756c-1.797,5.173-5.787,9.297-10.092,12.531c-17.143,12.877-39.362,18.342-59.704,23.889
			c-43.253,11.791-87.444,20.812-131.997,25.916c-42.664,4.888-87.85,7.574-130.013-2.473c-18.207-4.34-34.874-11.486-49.739-22.979
			C52.837,340.396,38.31,323.55,27.568,304.4C16.65,284.934,7.758,262.203,5.725,239.745v4.885
			c9.895,2.947,19.787,5.895,29.682,8.843c2.035,0.607,2.304,0.87,4.085,0.063c2.774-1.255,5.569-2.463,8.379-3.636
			c28.103-11.727,57.51-21.035,87.476-26.558c22.242-4.1,45.178-6.379,67.765-4.142c26.813,2.656,52.953,12.41,78.44,20.688
			c31.8,10.328,63.501,21.323,94.496,33.89c-0.604-0.245,0.596-4.355,0-4.886c-1.387-1.237-2.727-2.532-4.05-3.838
			c-11.015-10.865-21.104-22.92-29.312-36.051c-10.263-16.42-20.396-37.579-16.039-57.417c7.271-33.106,40.906-44.934,71.376-45.625
			c16.841-0.383,34.546,4.71,44.276,19.787c4.822,7.473,6.385,15.474,6.297,24.249c-0.014,1.296-0.615,3.706,0.521,4.55
			c2.153,1.602,4.352,3.148,6.588,4.635c8.002,5.315,16.697,10.767,26.047,13.319c6.705,1.83,22.835,0.963,24.408,10.405
			c-0.004-1.517-0.008-3.035-0.012-4.552c-0.076,4.901-8.391,5.392-11.797,5.721c-6.619,0.641-13.285,0.797-19.933,0.873
			c-12.065,0.137-24.282-0.615-36.313,0.22c-0.148,0.011,0.076,4.88,0,4.885c12.434-0.87,25.035-0.048,37.492-0.242
			c6.793-0.105,13.667-0.173,20.415-1.042c3.058-0.394,10.001-1.058,10.157-5.331c0.157-4.338,0.352-7.855-3.822-10.446
			c-7.049-4.374-15.199-3.391-22.766-6.073c-11.131-3.945-21.592-10.5-30.957-17.643v4.886c0.976-12.937-0.119-26.659-9.006-36.881
			c-6.742-7.756-16.188-12.835-26.131-15.198c-3.781-0.899-7.51-1.037-11.402-1.052c-11.145-0.044-22.467,1.129-33.188,4.262
			c-15.262,4.459-29.963,13.122-37.402,27.731c-7.344,14.421-7.754,32.588-3.631,48.071c7.4,27.791,26.889,53.685,48.193,72.678
			v-4.886c-23.844-9.667-48.141-18.319-72.497-26.584c-24.014-8.149-48.2-15.812-72.6-22.729
			c-18.774-5.322-38.267-6.85-57.717-5.776c-39.822,2.196-79.196,12.982-116.206,27.508c-4.835,1.897-9.646,3.861-14.404,5.945
			c-0.877,0.385-3.814,2.342-4.792,2.051c-10.701-3.189-21.403-6.377-32.104-9.565c0.206,0.061-0.048,4.355,0,4.885
			c1.666,18.399,8.17,37.131,16.115,53.645c17.374,36.106,47.406,68.193,86.43,80.234c40.33,12.446,84.677,11.151,126.231,7.26
			c45.409-4.254,90.49-12.728,134.634-24.127c21.342-5.51,43.855-10.703,63.283-21.406c9.307-5.127,20.043-12.4,20.111-24.148
			c0.043-7.277-1.779-12.871-7.186-17.975c-2.727-2.574-5.944-4.64-8.939-6.881c-13.029-9.748-25.889-19.746-38.398-30.153
			c-12.506-10.406-26.458-21.196-35.863-34.66c-15.083-21.591-24.936-54.664-4.586-75.617
			c13.127-13.518,34.881-19.142,53.276-18.229c13.478,0.667,26.147,6.242,32.438,18.752c9.012,17.928,7.514,43.268-9.503,56.657
			c-18.675,14.695-45.829,2.56-62.127-10.418L371.636,197.551z"/>
	</g>
	<g id="g43">
		<g id="g45">
			<path id="path47" fill="#1A171B" d="M410.258,172.485c0.059,1.148-0.088,3.241-0.01,4.711c0.276,5.299,5.296,10.479,10.937,8.201
				c4.722-1.907,5.704-5.953,5.704-10.557c0-4.512-1.186-9.895-6.549-10.795c-5.529-0.926-9.808,2.989-10.093,8.44
				c-0.077,1.47,0.074,3.562,0.014,4.71c0.226-4.32,3.567-8.725,8.298-8.462c2.021,0.111,4.106,0.7,5.564,2.202
				c0.801,0.824,1.586,1.724,2.002,2.816c0.506,1.325,0.033,2.411,0.548,0.479c-2.55,9.552-15.896,8.14-16.412-1.747H410.258z"/>
		</g>
	</g>
	<g id="g49">
		<g id="g51">
			<path id="path53" fill="#1A171B" d="M330.109,327.044c-0.713-1.163,0.742-3.693,0.02-4.905
				c-6.636-10.764-18.57-19.16-29.456-24.986c-16.392-8.772-34.753-13.463-53.235-14.929c-25.123-1.991-50.082,3.354-75.175,1.007
				c-11.495-1.078-25.799-3.191-34.183-12.098c-2.088-2.218-3.78-4.842-4.583-7.804c-0.316-1.171-0.54-2.374-0.59-3.59
				c0.11,2.735-0.313,4.534,0.15,1.732c0.375-2.265,3.374-3.42,5.441-3.249c3.756,0.312,6.773,3.377,8.933,6.209
				c5.6,7.345,9.159,16.277,12.216,24.914c7.441,21.02,12.66,44.074,26.736,61.992c3.102,3.95,8.541,10.758,14.278,10.862
				c0.008,0,0.066-4.885,0-4.886c-5.925-0.107-11.649-7.327-14.741-11.465c-13.921-18.629-18.866-41.493-26.813-62.88
				c-3.056-8.224-6.422-17.12-12.103-23.96c-2.129-2.564-5.148-5.703-8.781-5.682c-2.105,0.011-4.854,1.085-5.186,3.385
				c-0.639,4.415-0.575,9.779,1.332,13.9c3.835,8.285,13.048,12.505,21.407,14.719c21.759,5.763,44.036,2.405,66.118,1.406
				c21.608-0.979,43.747,0.997,64.119,8.676c16.144,6.086,34.714,16.363,44.114,31.611L330.109,327.044z"/>
		</g>
	</g>
	<path id="path55" fill="none" d="M16.475,274.252c32.401,80.123,82.907,101.619,182.005,105.527
		c99.106,3.908,241.089-50.81,241.089-50.81"/>
	
		<text id="text61" transform="matrix(-0.9366 0.2718 0.2787 0.9604 373.4316 350.9346)" font-family="'MyriadPro-Regular'" font-size="35.1763"> </text>
	
		<text id="text79" transform="matrix(-0.9579 0.1831 0.1878 0.9822 296.0967 370.1836)" font-family="'MyriadPro-Regular'" font-size="35.1753"> </text>
	
		<text id="text83" transform="matrix(-0.9631 0.1531 0.157 0.9876 276.9062 373.6816)" font-family="'MyriadPro-Regular'" font-size="35.1756"> </text>
	
		<text id="text89" transform="matrix(-0.9718 0.082 0.084 0.9965 241.6216 378.3535)" font-family="'MyriadPro-Regular'" font-size="35.1768"> </text>
	
		<text id="text101" transform="matrix(-0.9699 -0.1016 -0.1042 0.9946 166.6787 377.7471)" font-family="'MyriadPro-Regular'" font-size="35.1771"> </text>
</g>
</svg>
